<?xml version="1.0" encoding="UTF-8"?>
<svg version="1.1" xmlns="http://www.w3.org/2000/svg" width="808" height="916">
<path d="M0 0 C266.64 0 533.28 0 808 0 C808 302.28 808 604.56 808 916 C541.36 916 274.72 916 0 916 C0 613.72 0 311.44 0 0 Z " fill="#2E2D2D" transform="translate(0,0)"/>
<path d="M0 0 C0.98331299 -0.02215576 1.96662598 -0.04431152 2.97973633 -0.06713867 C10.85407339 -0.04354869 17.14922196 1.98697843 23.5 6.6875 C28.53736691 11.84201498 30.41664333 16.2528115 30.625 23.5 C30.33222962 30.56197638 28.77944455 35.18922886 23.625 40.125 C15.97869486 47.01489646 6.97206448 47.92223352 -2.875 47.875 C-16.26004083 48.08441268 -28.82065504 50.34544837 -41.8125 53.4375 C-42.52253174 53.60411133 -43.23256348 53.77072266 -43.96411133 53.94238281 C-81.40990003 62.98470293 -115.89316722 83.00174295 -143.26855469 109.92431641 C-144.61271286 111.24169344 -145.98022339 112.53515999 -147.3515625 113.82421875 C-161.57490127 127.41931817 -174.89241892 145.40889439 -182.8125 163.4375 C-183.4725 163.4375 -184.1325 163.4375 -184.8125 163.4375 C-185.23813232 164.75282715 -185.23813232 164.75282715 -185.67236328 166.09472656 C-186.69660811 169.09771589 -187.82479946 171.99849788 -189.0546875 174.921875 C-189.48136719 175.94023437 -189.90804687 176.95859375 -190.34765625 178.0078125 C-190.78980469 179.05710937 -191.23195313 180.10640625 -191.6875 181.1875 C-193.40220898 185.26820208 -195.10934746 189.35196349 -196.8125 193.4375 C-197.1943042 194.33710449 -197.5761084 195.23670898 -197.96948242 196.16357422 C-200.03965989 201.14243402 -201.48476931 205.74351162 -202.375 211.0625 C-202.61411697 212.45060125 -202.85371417 213.83861985 -203.09375 215.2265625 C-203.21105469 215.92426758 -203.32835937 216.62197266 -203.44921875 217.34082031 C-203.91902422 220.05230508 -204.45302109 222.7492513 -204.98681641 225.44873047 C-208.27011545 242.26995942 -209.149095 258.31679513 -208.8125 275.4375 C-208.80379883 276.29891602 -208.79509766 277.16033203 -208.78613281 278.04785156 C-208.46573784 305.8780221 -201.76908146 335.85645195 -188.78710938 360.56787109 C-187.69568745 362.6615858 -186.65323321 364.77672081 -185.609375 366.89453125 C-177.21030611 383.6754012 -166.84548408 398.93209669 -154.25341797 412.84521484 C-152.82465604 414.42406698 -151.41343719 416.01726004 -150.00390625 417.61328125 C-133.16914006 436.52336262 -113.11197627 450.64107705 -90.8125 462.4375 C-90.10480469 462.81600098 -89.39710938 463.19450195 -88.66796875 463.58447266 C-67.89249295 474.53193818 -44.89097252 480.71106774 -21.8125 484.4375 C-20.75264893 484.61708252 -19.69279785 484.79666504 -18.60083008 484.98168945 C-14.04436723 485.52992147 -9.58076137 485.59968687 -4.99609375 485.60546875 C-4.06257584 485.60879715 -3.12905792 485.61212555 -2.16725159 485.61555481 C-0.19638559 485.62059949 1.77448888 485.6229639 3.74536133 485.62280273 C6.71645738 485.62497547 9.68717329 485.64311964 12.65820312 485.66210938 C23.03161146 485.69338489 32.9703137 485.39816336 43.1875 483.4375 C43.99566162 483.28611572 44.80382324 483.13473145 45.63647461 482.97875977 C47.72585407 482.56256265 49.79979275 482.10655226 51.875 481.625 C52.62064209 481.45395752 53.36628418 481.28291504 54.13452148 481.10668945 C56.48788714 480.55986864 58.83782468 479.99994807 61.1875 479.4375 C61.97350586 479.25316406 62.75951172 479.06882812 63.56933594 478.87890625 C75.28480429 476.10431595 86.25672454 472.48971268 97.1875 467.4375 C98.0424707 467.04288574 98.89744141 466.64827148 99.77832031 466.24169922 C123.53505354 455.12830791 144.24005178 440.49981195 163.1875 422.4375 C163.91582031 421.75042969 164.64414062 421.06335938 165.39453125 420.35546875 C179.28294513 406.90534801 191.52590838 389.76068324 200.1875 372.4375 C200.8475 372.4375 201.5075 372.4375 202.1875 372.4375 C202.5278125 371.2928125 202.5278125 371.2928125 202.875 370.125 C204.34412381 365.99746169 206.12458883 362.08593627 207.95703125 358.109375 C210.62543021 352.31513726 213.04445394 346.44755363 215.1875 340.4375 C215.57035156 339.36628906 215.95320313 338.29507812 216.34765625 337.19140625 C228.98445455 300.6722185 234.23812847 253.5555334 220.84619141 216.4831543 C220.14660697 214.31050122 219.73829242 212.18899067 219.375 209.9375 C218.44947541 204.90296536 216.82937181 200.18828614 215.125 195.375 C214.85518311 194.611875 214.58536621 193.84875 214.30737305 193.0625 C213.22194447 189.47669584 213.22194447 189.47669584 211.1875 186.4375 C211.06006575 184.00735841 211.00228879 181.61819765 211 179.1875 C210.98775391 178.51847656 210.97550781 177.84945312 210.96289062 177.16015625 C210.94507028 171.11311938 212.06748809 167.13648888 216.3125 162.8125 C221.31614783 158.07708896 226.23138774 156.35442234 233.0625 155.9375 C240.16067401 156.16717897 245.7078476 159.43267466 251.125 163.8125 C253.92481258 167.37589783 255.30885123 171.07789541 256.87915039 175.29492188 C258.08246901 178.51685553 259.3027052 181.72502894 260.58203125 184.91796875 C264.10062374 194.11671331 266.43853165 203.35642061 268.4375 213 C268.68346924 214.18166748 268.92943848 215.36333496 269.18286133 216.58081055 C272.29861369 232.20041355 273.5384688 247.19616043 273.50317383 263.08935547 C273.50002635 266.03781615 273.52352578 268.98525697 273.54882812 271.93359375 C273.59246999 285.32774204 272.33070996 298.22503454 270.1875 311.4375 C269.96199793 312.879695 269.7366445 314.32191326 269.51147461 315.76416016 C267.69535058 326.99153007 264.33943762 337.79183498 261.02783203 348.65234375 C260.29387314 351.08494195 259.58987005 353.52273231 258.90234375 355.96875 C256.32065218 364.98677973 252.71113022 373.05614861 248.31738281 381.29980469 C247.13110788 383.54419174 245.98136461 385.80482869 244.8359375 388.0703125 C230.42559356 416.3538613 210.72640009 444.00281735 186.1875 464.4375 C184.71796875 465.73880859 184.71796875 465.73880859 183.21875 467.06640625 C159.39834889 488.12441206 131.89488316 504.19776463 102.1875 515.4375 C100.97578125 515.90800781 99.7640625 516.37851562 98.515625 516.86328125 C83.55724213 522.44040602 68.07945859 526.57443544 52.375 529.375 C50.70679199 529.67349854 50.70679199 529.67349854 49.00488281 529.97802734 C-17.08806831 541.06579502 -88.29899433 523.65981227 -142.875 485.25 C-163.4805389 470.46481118 -183.4887861 452.75433416 -198.8125 432.4375 C-199.41723145 431.65536133 -199.41723145 431.65536133 -200.03417969 430.85742188 C-206.14183784 422.94908132 -211.65337544 414.72995609 -216.9375 406.25 C-217.50629883 405.34072754 -218.07509766 404.43145508 -218.66113281 403.49462891 C-219.18803711 402.63659668 -219.71494141 401.77856445 -220.2578125 400.89453125 C-220.72719238 400.13116455 -221.19657227 399.36779785 -221.68017578 398.58129883 C-222.76937538 396.51914668 -223.36201632 394.71609429 -223.8125 392.4375 C-224.4725 392.4375 -225.1325 392.4375 -225.8125 392.4375 C-226.2146875 391.46876953 -226.2146875 391.46876953 -226.625 390.48046875 C-229.38017704 383.85535555 -232.15381441 377.23817926 -234.9375 370.625 C-235.27394531 369.82537842 -235.61039063 369.02575684 -235.95703125 368.2019043 C-236.28316406 367.42758057 -236.60929687 366.65325684 -236.9453125 365.85546875 C-237.2640332 365.09347168 -237.58275391 364.33147461 -237.91113281 363.54638672 C-238.67022878 361.77036534 -239.48166157 360.01684546 -240.3046875 358.26953125 C-242.55396227 353.02147555 -243.8452172 347.425204 -245.29199219 341.91601562 C-245.8044521 339.96809109 -246.32792241 338.0230739 -246.8515625 336.078125 C-248.91908939 328.28149688 -250.67907926 320.49780925 -252.18701172 312.57666016 C-252.67906394 310.10718026 -253.2498821 307.73077995 -253.9375 305.3125 C-256.65924583 293.2590542 -256.12857125 280.30251988 -256.1875 268 C-256.19239441 267.0587326 -256.19728882 266.11746521 -256.20233154 265.14767456 C-256.23652859 249.15852504 -254.7414778 234.18363307 -251.44189453 218.53076172 C-250.59695305 214.37815947 -249.92594457 210.20399635 -249.26757812 206.01831055 C-248.68704344 202.72601861 -247.82536415 199.62078733 -246.8125 196.4375 C-246.1525 196.4375 -245.4925 196.4375 -244.8125 196.4375 C-244.68875 195.468125 -244.565 194.49875 -244.4375 193.5 C-243.81386191 189.08934223 -242.82503494 184.77272241 -241.8125 180.4375 C-241.1525 180.4375 -240.4925 180.4375 -239.8125 180.4375 C-239.8125 179.1175 -239.8125 177.7975 -239.8125 176.4375 C-239.1525 176.4375 -238.4925 176.4375 -237.8125 176.4375 C-237.82152344 175.85484375 -237.83054688 175.2721875 -237.83984375 174.671875 C-237.59271349 167.83818602 -235.45206396 163.52527411 -231.85546875 157.79296875 C-229.54274972 153.99444934 -227.53525066 150.10736654 -225.5625 146.125 C-225.2337085 145.46741699 -224.90491699 144.80983398 -224.56616211 144.13232422 C-223.03415788 141.03704239 -221.60532688 137.94644229 -220.26171875 134.76171875 C-214.0325875 120.47333412 -202.99224332 106.28222205 -192.26171875 95.02734375 C-190.29991097 92.95289628 -188.42863468 90.84925329 -186.56640625 88.6875 C-176.70131694 77.36022798 -165.82558661 66.46684208 -153.8125 57.4375 C-153.15233887 56.92799805 -152.49217773 56.41849609 -151.81201172 55.89355469 C-140.33289458 47.04018155 -128.53654657 39.37132817 -115.8125 32.4375 C-115.09449219 32.04272461 -114.37648438 31.64794922 -113.63671875 31.24121094 C-100.68742082 24.13591435 -87.34935071 18.19366391 -73.125 14.11328125 C-70.9130106 13.46687219 -68.74157204 12.74905601 -66.5625 12 C-44.94260503 4.72992968 -22.83660153 0.27437201 0 0 Z " fill="#FB674C" transform="translate(405.8125,90.5625)"/>
<path d="M0 0 C70.62 0 141.24 0 214 0 C214 16.83 214 33.66 214 51 C189.58 51 165.16 51 140 51 C140 110.07 140 169.14 140 230 C118.22 230 96.44 230 74 230 C74 170.93 74 111.86 74 51 C49.58 51 25.16 51 0 51 C0 34.17 0 17.34 0 0 Z " fill="#FCFCFC" transform="translate(308,247)"/>
<path d="M0 0 C7.6725 -0.103125 15.345 -0.20625 23.25 -0.3125 C25.64668945 -0.35802002 28.04337891 -0.40354004 30.51269531 -0.45043945 C50.71567213 -0.67443326 50.71567213 -0.67443326 60 5 C60.85795166 5.49765869 61.71590332 5.99531738 62.59985352 6.50805664 C70.76526437 11.41396236 76.89549971 18.60435004 79.53271484 27.87207031 C81.79195172 38.16021485 80.62966591 49.61665927 76 59 C75.34 59 74.68 59 74 59 C73.7215625 60.051875 73.7215625 60.051875 73.4375 61.125 C69.55978762 68.88042475 60.77723485 72.99413042 53 76 C46.17321493 77.76937432 39.64484279 78.27727707 32.6171875 78.1953125 C31.78195557 78.19329834 30.94672363 78.19128418 30.08618164 78.18920898 C27.01573055 78.17887641 23.94535877 78.15095575 20.875 78.125 C13.98625 78.08375 7.0975 78.0425 0 78 C0 52.26 0 26.52 0 0 Z " fill="#F9F9F9" transform="translate(419,722)"/>
<path d="M0 0 C-1.65109441 3.4913576 -3.60111727 5.92092117 -6.25 8.75 C-8.99729055 11.74227187 -11.61869354 14.70898096 -14 18 C-23.79491516 31.32000825 -36.53143612 42.5876694 -53.30078125 45.71875 C-67.33506967 47.18107817 -81.51550111 46.20973184 -94 39 C-95.74609375 37.375 -95.74609375 37.375 -97 36 C-92.67336682 32.24935824 -88.23151555 29.02863665 -83.375 26 C-82.67640869 25.56357178 -81.97781738 25.12714355 -81.25805664 24.67749023 C-75.40847557 21.10144679 -69.42015677 18.40263536 -63 16 C-61.72565047 15.44551204 -60.45421898 14.88420503 -59.1875 14.3125 C-55.8152775 12.92393779 -52.52105082 11.93415634 -49 11 C-65.11797577 11.27702771 -77.84823297 15.91538711 -91.79370117 23.69702148 C-92.94189331 24.33619507 -92.94189331 24.33619507 -94.11328125 24.98828125 C-95.13095581 25.56896362 -95.13095581 25.56896362 -96.16918945 26.16137695 C-98 27 -98 27 -101 27 C-92.97749214 10.10321185 -83.59180602 -2.64967113 -65.25 -9.375 C-42.68927031 -13.71360186 -19.92599485 -11.92818265 0 0 Z " fill="#92C73D" transform="translate(631,208)"/>
<path d="M0 0 C7.58020611 4.69654728 12.8580526 10.32701001 15.609375 18.8984375 C17.28838381 27.93150491 16.12221568 35.76597719 11.3125 43.5 C6.6757009 50.21770406 0.20363325 56.3038307 -8 58 C-18.0429767 58.83403873 -29.21218709 59.57318552 -38 54 C-38.63808594 53.59910156 -39.27617187 53.19820312 -39.93359375 52.78515625 C-46.0107005 48.27633511 -50.69959845 40.47008446 -52 33 C-52.73149879 23.27950647 -52.05565489 15.29500677 -45.625 7.6875 C-44.43493005 6.44064248 -43.22839627 5.20911651 -42 4 C-40.88625 2.88625 -40.88625 2.88625 -39.75 1.75 C-27.55071166 -6.01318349 -12.92158065 -6.3446212 0 0 Z " fill="#F8F8F8" transform="translate(389,742)"/>
<path d="M0 0 C6.67575099 3.87817908 14.00511332 8.86564879 16.984375 16.28515625 C19.25260725 25.01154977 19.7132352 35.24565234 15.171875 43.26171875 C9.73546916 51.98354058 3.02444518 56.52222363 -6.828125 59.26171875 C-18.13513384 60.18108483 -29.58893074 60.14956854 -38.703125 52.63671875 C-44.7154451 46.79679493 -48.64345808 40.17168625 -48.9609375 31.73046875 C-48.95835937 30.42078125 -48.95578125 29.11109375 -48.953125 27.76171875 C-48.95570313 26.45203125 -48.95828125 25.14234375 -48.9609375 23.79296875 C-48.85737255 21.03935951 -48.66270514 18.85819028 -47.828125 16.26171875 C-47.168125 16.26171875 -46.508125 16.26171875 -45.828125 16.26171875 C-45.76625 15.56046875 -45.704375 14.85921875 -45.640625 14.13671875 C-43.66731729 7.15424533 -38.36014299 4.05713981 -32.42578125 0.55859375 C-22.64854569 -4.32267272 -9.94943968 -4.75770186 0 0 Z " fill="#F9F9F9" transform="translate(556.828125,740.73828125)"/>
<path d="M0 0 C5.7689391 4.69096485 9.75697352 10.03266477 11.6875 17.25 C12.24935416 24.44669078 12.27597882 31.4552431 9.6875 38.25 C9.0275 38.25 8.3675 38.25 7.6875 38.25 C7.44 38.971875 7.1925 39.69375 6.9375 40.4375 C3.50040669 48.17095995 -2.51629244 51.28915731 -10.0546875 54.37109375 C-19.04598952 56.79680473 -30.7833584 56.71151785 -39.203125 52.57421875 C-46.10272774 48.24280147 -50.23445166 43.81686883 -53.3125 36.25 C-53.3125 35.59 -53.3125 34.93 -53.3125 34.25 C-53.9725 34.25 -54.6325 34.25 -55.3125 34.25 C-56.16488454 12.30109802 -56.16488454 12.30109802 -47.6875 3 C-34.39226089 -9.45030803 -14.85959786 -10.30040306 0 0 Z " fill="#F7F8F8" transform="translate(689.3125,744.75)"/>
<path d="M0 0 C4.60564341 3.55540255 6.64644487 7.09754172 8.1796875 12.75390625 C8.55302367 16.08682518 8.53178018 19.37233873 8.47265625 22.72265625 C8.46841141 23.64357056 8.46416656 24.56448486 8.45979309 25.51330566 C8.44312815 28.4271487 8.40549938 31.34027564 8.3671875 34.25390625 C8.35212489 36.24087536 8.33843925 38.22785542 8.32617188 40.21484375 C8.29326466 45.06146982 8.24156781 49.90756703 8.1796875 54.75390625 C2.5696875 54.75390625 -3.0403125 54.75390625 -8.8203125 54.75390625 C-8.8203125 52.77390625 -8.8203125 50.79390625 -8.8203125 48.75390625 C-9.32820313 49.16382813 -9.83609375 49.57375 -10.359375 49.99609375 C-17.34986754 55.46805233 -22.77669768 57.29229009 -31.7109375 57.13671875 C-37.97359217 56.3656884 -42.94382041 53.67731064 -47.3203125 49.19140625 C-50.92352818 43.33618078 -51.91574375 38.65903537 -50.8203125 31.75390625 C-47.95472412 26.00165899 -42.66797663 22.95565833 -36.8203125 20.75390625 C-33.68598636 19.81241503 -30.88471437 19.63725275 -27.6171875 19.65625 C-26.6375 19.65947266 -25.6578125 19.66269531 -24.6484375 19.66601562 C-23.63265625 19.67439453 -22.616875 19.68277344 -21.5703125 19.69140625 C-20.0234375 19.69817383 -20.0234375 19.69817383 -18.4453125 19.70507812 C-15.90358677 19.71684537 -13.36197931 19.73328614 -10.8203125 19.75390625 C-12.03147327 15.16340006 -12.03147327 15.16340006 -15.3203125 11.94140625 C-16.1453125 11.54953125 -16.9703125 11.15765625 -17.8203125 10.75390625 C-18.4803125 10.42390625 -19.1403125 10.09390625 -19.8203125 9.75390625 C-27.78745698 8.7857871 -34.44370978 10.91480142 -41.8203125 13.75390625 C-42.88130578 12.01555568 -43.91857733 10.26270821 -44.9453125 8.50390625 C-45.52539062 7.529375 -46.10546875 6.55484375 -46.703125 5.55078125 C-47.8203125 2.75390625 -47.8203125 2.75390625 -47.19140625 0.49609375 C-37.59524486 -11.6973193 -10.83989864 -7.42044563 0 0 Z " fill="#F9F9F9" transform="translate(255.8203125,744.24609375)"/>
<path d="M0 0 C-0.28482368 1.41805831 -0.57818144 2.83440379 -0.875 4.25 C-1.03742188 5.03890625 -1.19984375 5.8278125 -1.3671875 6.640625 C-1.99150075 8.96831144 -2.84838542 10.89031952 -4 13 C-6.78261977 12.49406913 -9.32709459 11.884154 -12 10.9375 C-17.83631465 9.22396832 -25.7502274 8.62162989 -31.39453125 11.015625 C-32.18923828 11.50289062 -32.18923828 11.50289062 -33 12 C-32.67 13.65 -32.34 15.3 -32 17 C-31.27409668 17.16081055 -30.54819336 17.32162109 -29.80029297 17.48730469 C-26.48881144 18.22859434 -23.18202614 18.98909133 -19.875 19.75 C-18.73289062 20.00265625 -17.59078125 20.2553125 -16.4140625 20.515625 C-8.99420567 22.2411731 -4.36517735 24.07760915 1.375 29.0625 C3.84038974 33.51916606 3.63954899 38.01003059 3 43 C1.9765625 45.33984375 1.9765625 45.33984375 1 47 C0.34 47 -0.32 47 -1 47 C-1.2784375 47.86625 -1.2784375 47.86625 -1.5625 48.75 C-4.78557612 53.7948148 -11.43440367 55.92392031 -17.0078125 57.45703125 C-29.54795116 59.73259166 -41.68489282 57.98084236 -53 52 C-52.46515599 46.65155992 -50.53309233 42.64203897 -48 38 C-47.28199219 38.29648437 -46.56398438 38.59296875 -45.82421875 38.8984375 C-36.99169562 42.34348802 -28.34019207 44.42330842 -18.9375 42.3125 C-16.7247707 41.13097848 -16.7247707 41.13097848 -16.37890625 38.41796875 C-16.25386719 37.62003906 -16.12882812 36.82210937 -16 36 C-17.03833984 35.85304688 -17.03833984 35.85304688 -18.09765625 35.703125 C-42.9595057 31.90342205 -42.9595057 31.90342205 -49 25 C-52.07770327 20.07137028 -51.45201784 14.60502117 -51 9 C-49.47079759 3.49487132 -46.07885138 1.13519396 -41.37109375 -1.7421875 C-29.29967215 -8.14580818 -11.79804225 -6.35491737 0 0 Z " fill="#F6F7F6" transform="translate(328,743)"/>
<path d="M0 0 C23.1 0 46.2 0 70 0 C70 4.95 70 9.9 70 15 C61.42 15 52.84 15 44 15 C44 35.46 44 55.92 44 77 C37.73 77 31.46 77 25 77 C25 56.54 25 36.08 25 15 C16.75 15 8.5 15 0 15 C0 10.05 0 5.1 0 0 Z " fill="#FBFCFC" transform="translate(131,722)"/>
<path d="M0 0 C26.73996914 0 26.73996914 0 35.59375 8.45703125 C40.34013339 13.66486858 40.58505873 18.86311583 40.4140625 25.671875 C39.62292342 32.03084197 36.93838705 37.52413006 32.25 41.9375 C21.42511181 48.80714058 13.29661529 47 0 47 C0 31.49 0 15.98 0 0 Z " fill="#2F2F2E" transform="translate(439,737)"/>
<path d="M0 0 C0 5.61 0 11.22 0 17 C-4.83398438 17.5859375 -4.83398438 17.5859375 -9.66796875 18.171875 C-13.38782817 19.09638871 -15.25313166 20.36863069 -18 23 C-19.60951543 26.21903085 -19.24234748 29.74838832 -19.31640625 33.2890625 C-19.33718735 34.10748627 -19.35796844 34.92591003 -19.37937927 35.76913452 C-19.44484812 38.38766966 -19.50374726 41.00630639 -19.5625 43.625 C-19.60568776 45.39844807 -19.64930214 47.17188581 -19.69335938 48.9453125 C-19.80133099 53.29677232 -19.90042378 57.64830747 -20 62 C-26.27 62 -32.54 62 -39 62 C-39 41.87 -39 21.74 -39 1 C-33.06 1 -27.12 1 -21 1 C-20.67 2.98 -20.34 4.96 -20 7 C-19.39671875 6.57847656 -18.7934375 6.15695312 -18.171875 5.72265625 C-17.37265625 5.17480469 -16.5734375 4.62695312 -15.75 4.0625 C-14.96109375 3.51722656 -14.1721875 2.97195313 -13.359375 2.41015625 C-8.61413593 -0.42598829 -5.87543126 0 0 0 Z " fill="#F7F8F8" transform="translate(627,738)"/>
<path d="M0 0 C20.63636364 0 20.63636364 0 26.3125 5.0625 C29.12345033 8.28988741 29.28085605 10.69114687 29.21875 14.9609375 C28.89892942 17.94212219 27.92599127 19.73008172 26 22 C23.890625 22.62890625 23.890625 22.62890625 22 23 C24.59641365 27.71048959 27.18863332 32.41303332 30 37 C27.734375 37.2734375 27.734375 37.2734375 25 37 C23.015625 35.1015625 23.015625 35.1015625 21.25 32.625 C20.65703125 31.81289063 20.0640625 31.00078125 19.453125 30.1640625 C18 28 18 28 17 26 C13.01434954 25.39386091 9.02725031 25.25435265 5 25 C5 28.96 5 32.92 5 37 C3.35 37 1.7 37 0 37 C0 24.79 0 12.58 0 0 Z " fill="#B1B1B1" transform="translate(574,833)"/>
<path d="M0 0 C3.7671932 1.85619883 7.03005286 4.03005286 10 7 C11.39422177 12.71630925 12.13633614 19.22228943 9.875 24.75 C4.13662293 31.63605248 4.13662293 31.63605248 -0.66015625 32.453125 C-4.99357074 32.61642999 -8.07490695 32.49207077 -11.9375 30.4375 C-16.98124314 24.47671265 -18.71160556 20.42046971 -18.37890625 12.5859375 C-17.72497837 8.12304829 -15.92772265 5.52213744 -12.421875 2.75390625 C-8.29690806 0.06896155 -4.9616655 -0.78342087 0 0 Z " fill="#2C2C2C" transform="translate(374,753)"/>
<path d="M0 0 C4.60201712 2.17990285 6.7675784 4.48383676 9 9 C9.29296875 12.11328125 9.29296875 12.11328125 9.1875 15.3125 C9.16042969 16.38113281 9.13335938 17.44976563 9.10546875 18.55078125 C9.07066406 19.35902344 9.03585937 20.16726563 9 21 C8.34 21.33 7.68 21.66 7 22 C6.3503125 23.423125 6.3503125 23.423125 5.6875 24.875 C3.72960144 28.50073807 2.82996474 29.53320499 -1 31 C-5.18450174 31.62977451 -9.15696484 31.98149801 -12.98046875 29.9453125 C-14.625 28.625 -14.625 28.625 -17 26 C-17 25.34 -17 24.68 -17 24 C-17.99 23.67 -18.98 23.34 -20 23 C-21.03336645 8.13100501 -21.03336645 8.13100501 -17.125 3.625 C-12.12516451 -1.08498995 -6.58904005 -0.62014495 0 0 Z " fill="#303030" transform="translate(547,754)"/>
<path d="M0 0 C3.83933043 1.9924801 6.13470647 4.64562752 8.4375 8.25 C9.50633927 13.47543645 10.32765307 18.47452744 7.76171875 23.35546875 C5.39905058 26.57409114 3.34337904 28.77108064 0 31 C-2.55859375 31.265625 -2.55859375 31.265625 -5.4375 31.25 C-6.38496094 31.25515625 -7.33242188 31.2603125 -8.30859375 31.265625 C-11.12538557 30.98762523 -12.67045553 30.5862851 -15 29 C-18.01902553 25.17060446 -20.30465682 20.86991542 -20.5 15.9375 C-19.78339862 10.29426416 -18.56797897 6.02319868 -15.0625 1.5 C-10.12621107 -0.91777417 -5.37339437 -0.94531938 0 0 Z " fill="#2F2F2F" transform="translate(673,754)"/>
<path d="M0 0 C1.65 0 3.3 0 5 0 C5.38333496 0.69150146 5.76666992 1.38300293 6.16162109 2.09545898 C7.8937715 5.21264756 9.63425987 8.32510072 11.375 11.4375 C11.97828125 12.52611328 12.5815625 13.61472656 13.203125 14.73632812 C13.78320312 15.77080078 14.36328125 16.80527344 14.9609375 17.87109375 C15.49509277 18.82943115 16.02924805 19.78776855 16.57958984 20.77514648 C17.80705341 23.11737506 17.80705341 23.11737506 20 24 C20.33837891 22.78763672 20.33837891 22.78763672 20.68359375 21.55078125 C22.33449235 17.09776395 24.61721424 13.24452998 27.0625 9.1875 C27.52205078 8.41212891 27.98160156 7.63675781 28.45507812 6.83789062 C31.83497362 1.16502638 31.83497362 1.16502638 33 0 C34.65 0 36.3 0 38 0 C38 11.88 38 23.76 38 36 C36.35 36 34.7 36 33 36 C32.505 23.625 32.505 23.625 32 11 C28.17371603 17.57498696 28.17371603 17.57498696 24.37182617 24.1640625 C23.89205322 24.97617187 23.41228027 25.78828125 22.91796875 26.625 C22.43094482 27.46289062 21.9439209 28.30078125 21.44213867 29.1640625 C20.96623291 29.76992188 20.49032715 30.37578125 20 31 C19.01 31 18.02 31 17 31 C15.6496582 29.28759766 15.6496582 29.28759766 14.30078125 26.9140625 C13.81416016 26.06585937 13.32753906 25.21765625 12.82617188 24.34375 C12.0769043 22.99796875 12.0769043 22.99796875 11.3125 21.625 C10.54583008 20.29082031 10.54583008 20.29082031 9.76367188 18.9296875 C6 12.29678112 6 12.29678112 6 10 C5.34 10 4.68 10 4 10 C4 18.58 4 27.16 4 36 C2.68 36 1.36 36 0 36 C0 24.12 0 12.24 0 0 Z " fill="#BDBCBC" transform="translate(488,834)"/>
<path d="M0 0 C5.88995628 1.99837802 9.58897804 5.88346706 13 11 C13.88526682 17.22240431 14.18014615 23.27289344 10.4375 28.5625 C6.72710241 32.65345119 3.17999799 35.5472016 -2.38671875 36.33984375 C-8.81408213 36.58591432 -14.92379015 35.83493849 -19.79296875 31.34765625 C-24.34564999 26.23264859 -25.31551499 22.29112084 -25.20703125 15.49609375 C-24.76042088 10.11148953 -22.34719295 7.13291691 -18.4375 3.6875 C-12.71192699 -1.00377595 -7.23626104 -0.48535897 0 0 Z M-19 10 C-21.09108461 14.18216922 -20.7034593 19.71163844 -19.3515625 24.109375 C-17.65975806 27.49298389 -15.93745832 29.03658098 -12.6875 30.9375 C-7.32744838 32.48192165 -3.27036426 32.907058 1.75 30.3125 C5.81419957 27.42066569 7.62207272 25.03478241 8.5390625 20.09765625 C8.84333249 14.16769727 8.84333249 14.16769727 6.5 8.921875 C1.4203663 4.56185607 -2.50746015 3.54799262 -9.16015625 3.57421875 C-13.62095854 4.2430323 -16.19073924 6.59001682 -19 10 Z " fill="#B5B6B5" transform="translate(288,834)"/>
<path d="M0 0 C8.58 0 17.16 0 26 0 C26 1.32 26 2.64 26 4 C19.07 4 12.14 4 5 4 C5 7.63 5 11.26 5 15 C10.94 15 16.88 15 23 15 C23 16.32 23 17.64 23 19 C17.06 19 11.12 19 5 19 C5 23.29 5 27.58 5 32 C11.93 32 18.86 32 26 32 C26 33.32 26 34.64 26 36 C17.42 36 8.84 36 0 36 C0 24.12 0 12.24 0 0 Z " fill="#B6B7B6" transform="translate(538,834)"/>
<path d="M0 0 C-0.33 1.32 -0.66 2.64 -1 4 C-1.70769531 3.83757813 -2.41539062 3.67515625 -3.14453125 3.5078125 C-6.05410606 2.99037785 -8.73512902 2.86694442 -11.6875 2.875 C-12.64011719 2.87242187 -13.59273438 2.86984375 -14.57421875 2.8671875 C-17.00996498 2.83929591 -17.00996498 2.83929591 -19 4 C-19 5.98 -19 7.96 -19 10 C-18.35933594 10.25394531 -17.71867187 10.50789062 -17.05859375 10.76953125 C-15.26267431 11.48415195 -13.46848147 12.20312275 -11.67578125 12.92578125 C-10.09473793 13.56050667 -8.51009751 14.18658575 -6.91796875 14.79296875 C-3.170579 16.27069761 -0.26551561 17.60172658 2 21 C2.08186952 25.50282351 1.48879013 27.42347831 -1.4375 30.875 C-6.7035158 35.24193993 -12.39058881 34.47097942 -19 34 C-21.65417153 33.26129854 -23.58050233 32.35041731 -26 31 C-25.67 29.68 -25.34 28.36 -25 27 C-21 28 -21 28 -19.140625 28.5234375 C-16.8721169 29.02847032 -14.82229414 29.16761734 -12.5 29.1875 C-11.7471875 29.20167969 -10.994375 29.21585938 -10.21875 29.23046875 C-7.75135827 28.97417278 -6.13643744 28.22845153 -4 27 C-4 25.35 -4 23.7 -4 22 C-8.03947968 20.15588971 -11.88579213 18.74025759 -16.1875 17.625 C-19.41933817 16.66577862 -20.98402301 16.01331416 -23.625 13.8125 C-25.44435719 10.09108756 -26.09710987 7.0527566 -25 3 C-22.88966261 0.22933123 -20.28480846 -1.46120936 -17.0625 -2.8125 C-10.44801375 -3.41381693 -6.04996779 -2.54735486 0 0 Z " fill="#AFAFAF" transform="translate(413,836)"/>
<path d="M0 0 C1.65 0 3.3 0 5 0 C5.0093457 0.79696289 5.01869141 1.59392578 5.02832031 2.41503906 C5.08201498 6.02732175 5.16566608 9.63830821 5.25 13.25 C5.26417969 14.50425781 5.27835937 15.75851562 5.29296875 17.05078125 C5.32519531 18.25605469 5.35742188 19.46132813 5.390625 20.703125 C5.4220459 22.36843262 5.4220459 22.36843262 5.45410156 24.06738281 C6.11399267 27.61237925 7.19268629 28.80640851 10 31 C14.47422254 32.08854072 18.08987193 31.54986904 22 29.1875 C25.09365185 25.80381829 25.15292959 22.87090112 25.31640625 18.45703125 C25.35830078 17.38388672 25.40019531 16.31074219 25.44335938 15.20507812 C25.48267578 14.08552734 25.52199219 12.96597656 25.5625 11.8125 C25.60568359 10.68134766 25.64886719 9.55019531 25.69335938 8.38476562 C25.79949099 5.58996646 25.90154385 2.79507838 26 0 C27.32 0 28.64 0 30 0 C30.02896822 4.43748635 30.04678788 8.87494847 30.0625 13.3125 C30.07087891 14.57513672 30.07925781 15.83777344 30.08789062 17.13867188 C30.09272461 18.95141602 30.09272461 18.95141602 30.09765625 20.80078125 C30.10551147 22.47394409 30.10551147 22.47394409 30.11352539 24.1809082 C30 27 30 27 29 30 C23.09387753 35.27781157 19.95723332 36.51102824 12.12890625 36.4921875 C7.08148225 35.69821069 4.17828665 32.84877452 1 29 C-0.38308781 26.23382437 -0.11210196 23.98982 -0.09765625 20.8984375 C-0.09443359 19.68671875 -0.09121094 18.475 -0.08789062 17.2265625 C-0.07951172 15.95554687 -0.07113281 14.68453125 -0.0625 13.375 C-0.05798828 12.09625 -0.05347656 10.8175 -0.04882812 9.5 C-0.03701203 6.33328708 -0.02053815 3.16666644 0 0 Z " fill="#B1B2B1" transform="translate(348,834)"/>
<path d="M0 0 C1.9140625 1.08984375 1.9140625 1.08984375 4.5390625 3.08984375 C3.8790625 4.40984375 3.2190625 5.72984375 2.5390625 7.08984375 C1.9409375 6.78046875 1.3428125 6.47109375 0.7265625 6.15234375 C-4.30873076 3.70662988 -8.95846157 3.59760948 -14.4609375 4.08984375 C-17.43847273 5.33048343 -18.86828192 6.14117598 -20.56640625 8.859375 C-22.59981124 13.92956823 -22.25803252 20.07613 -20.2734375 25.08984375 C-16.89834824 28.81408018 -14.58254948 29.98302356 -9.5234375 30.46484375 C-6.38391802 30.37024429 -5.16002429 29.93938714 -2.2109375 28.46484375 C-1.3034375 28.01109375 -0.3959375 27.55734375 0.5390625 27.08984375 C2.9140625 27.90234375 2.9140625 27.90234375 4.5390625 29.08984375 C1.05776739 32.95794943 -1.94084586 34.77437376 -7.14453125 35.42578125 C-13.1198958 35.51053819 -16.82968362 35.26926798 -21.4609375 31.08984375 C-26.80209683 25.15522227 -27.93285689 20.90688245 -27.76953125 13 C-27.34497485 8.99627195 -26.22949229 7.00037571 -23.4609375 4.08984375 C-23.02136719 3.60644531 -22.58179688 3.12304688 -22.12890625 2.625 C-16.35279793 -2.65392431 -7.07725659 -2.61746157 0 0 Z " fill="#B3B3B3" transform="translate(335.4609375,834.91015625)"/>
<path d="M0 0 C8.25 0 16.5 0 25 0 C25 1.32 25 2.64 25 4 C18.07 4 11.14 4 4 4 C4 8.29 4 12.58 4 17 C10.27 17 16.54 17 23 17 C23 18.32 23 19.64 23 21 C16.73 21 10.46 21 4 21 C4 25.95 4 30.9 4 36 C2.68 36 1.36 36 0 36 C0 24.12 0 12.24 0 0 Z " fill="#BDBDBD" transform="translate(233,834)"/>
<path d="M0 0 C13.18538713 -0.49291167 13.18538713 -0.49291167 16.91796875 1.765625 C19.09319144 4.10001032 19.68596701 4.87848931 19.625 8 C19.63789062 8.66 19.65078125 9.32 19.6640625 10 C18.5975857 13.21197719 16.85403219 14.27306218 14 16 C9.27267379 16.52005789 4.77279398 16.1784222 0 16 C0 10.72 0 5.44 0 0 Z " fill="#2E2E2E" transform="translate(579,838)"/>
<path d="M0 0 C9.9 0 19.8 0 30 0 C30 1.32 30 2.64 30 4 C26.04 4 22.08 4 18 4 C18 14.56 18 25.12 18 36 C16.35 36 14.7 36 13 36 C13 25.44 13 14.88 13 4 C8.71 4 4.42 4 0 4 C0 2.68 0 1.36 0 0 Z " fill="#B5B5B5" transform="translate(433,834)"/>
<path d="M0 0 C0.69738281 0.00902344 1.39476562 0.01804687 2.11328125 0.02734375 C3.82566958 0.05080112 5.53788004 0.08666896 7.25 0.125 C8.06725562 6.89654658 8.06725562 6.89654658 6.0078125 9.9921875 C2.77061998 13.11003651 0.15087428 14.50370354 -4.375 14.625 C-7.80491669 14.39047578 -10.66625267 13.71661152 -13.75 12.125 C-13.75 9.485 -13.75 6.845 -13.75 4.125 C-13.09 4.125 -12.43 4.125 -11.75 4.125 C-11.75 3.465 -11.75 2.805 -11.75 2.125 C-8.00764681 -0.32489101 -4.30774581 -0.10586143 0 0 Z " fill="#414040" transform="translate(237.75,773.875)"/>
<path d="M0 0 C0.66 0.33 1.32 0.66 2 1 C3.87610932 6.62832796 4.53576823 13.86469462 1.87109375 19.3046875 C-1.6497286 23.58850791 -5.69377074 26.60481098 -11.3203125 27.27734375 C-16.97767613 27.49360383 -22.04457123 26.8659277 -27 24 C-29.79593448 21.34386224 -30.90760109 20.03948775 -31.25 16.1875 C-31.1675 15.465625 -31.085 14.74375 -31 14 C-29.125 14.1875 -29.125 14.1875 -27 15 C-26.731875 15.804375 -26.46375 16.60875 -26.1875 17.4375 C-25.19369339 20.34204789 -25.19369339 20.34204789 -21.8125 21.3125 C-15.36061498 22.47595467 -10.56654973 22.83473426 -5 19 C-0.39138716 13.14581612 -0.23932243 7.28736796 0 0 Z " fill="#B3B3B3" transform="translate(297,843)"/>
<path d="M0 0 C1.65 0 3.3 0 5 0 C6.39521556 2.23953056 7.76562784 4.4888661 9.125 6.75 C9.52332031 7.38421875 9.92164063 8.0184375 10.33203125 8.671875 C11.4453125 10.546875 11.4453125 10.546875 13 14 C12.2421875 16.453125 12.2421875 16.453125 11 18 C8.20127563 15.47211993 6.54226981 13.79588866 6 10 C5.34 10 4.68 10 4 10 C4 18.58 4 27.16 4 36 C2.68 36 1.36 36 0 36 C0 24.12 0 12.24 0 0 Z " fill="#B5B6B4" transform="translate(488,834)"/>
<path d="M0 0 C1.65 0 3.3 0 5 0 C5 11.88 5 23.76 5 36 C3.35 36 1.7 36 0 36 C0 24.12 0 12.24 0 0 Z " fill="#B1B0AF" transform="translate(470,834)"/>
<path d="M0 0 C1.91796875 1.0859375 1.91796875 1.0859375 4.54296875 3.0859375 C3.88296875 4.4059375 3.22296875 5.7259375 2.54296875 7.0859375 C1.94484375 6.7765625 1.34671875 6.4671875 0.73046875 6.1484375 C-4.30482451 3.70272363 -8.95455532 3.59370323 -14.45703125 4.0859375 C-17.42097034 5.32091212 -18.85990103 6.1236557 -20.54296875 8.8359375 C-21.6449277 11.54845184 -21.87375089 13.9200124 -22.08203125 16.8359375 C-22.15679687 17.82078125 -22.2315625 18.805625 -22.30859375 19.8203125 C-22.35757812 20.56796875 -22.4065625 21.315625 -22.45703125 22.0859375 C-22.78703125 22.0859375 -23.11703125 22.0859375 -23.45703125 22.0859375 C-23.45703125 17.7959375 -23.45703125 13.5059375 -23.45703125 9.0859375 C-24.44703125 9.4159375 -25.43703125 9.7459375 -26.45703125 10.0859375 C-25.36988841 5.46558045 -22.82944583 2.9212884 -19.0703125 0.26171875 C-13.24743646 -2.35814028 -5.95662089 -2.21597661 0 0 Z " fill="#AAABAA" transform="translate(335.45703125,834.9140625)"/>
<path d="M0 0 C1.32 0 2.64 0 4 0 C4.02896822 4.43748635 4.04678788 8.87494847 4.0625 13.3125 C4.07087891 14.57513672 4.07925781 15.83777344 4.08789062 17.13867188 C4.09111328 18.34716797 4.09433594 19.55566406 4.09765625 20.80078125 C4.10289307 21.91622314 4.10812988 23.03166504 4.11352539 24.1809082 C3.98914155 27.26963991 3.55560907 29.25918791 1.6875 31.75 C1.130625 32.1625 0.57375 32.575 0 33 C-2.10546875 32.578125 -2.10546875 32.578125 -4 32 C-3.51917969 30.9378125 -3.03835938 29.875625 -2.54296875 28.78125 C-0.42302504 23.12806679 -0.43762691 17.47749107 -0.3125 11.5 C-0.27833984 10.39140625 -0.24417969 9.2828125 -0.20898438 8.140625 C-0.12711333 5.42718457 -0.05776596 2.71404253 0 0 Z " fill="#BBBBBB" transform="translate(374,834)"/>
<path d="M0 0 C-3.28804301 1.79926809 -6.59253642 2.83559595 -10.1875 3.875 C-15.68223769 5.52466165 -20.84289039 7.49473745 -26 10 C-27.32 9.01 -28.64 8.02 -30 7 C-30.5775 7.350625 -31.155 7.70125 -31.75 8.0625 C-34.39786506 9.16577711 -35.33185326 8.80156509 -38 8 C-26.02715691 2.26301269 -13.34549168 -0.86617374 0 0 Z " fill="#363933" transform="translate(586,218)"/>
<path d="M0 0 C-0.33 1.32 -0.66 2.64 -1 4 C-1.70898438 3.83757813 -2.41796875 3.67515625 -3.1484375 3.5078125 C-6.0371762 2.99337958 -8.69377752 2.86692501 -11.625 2.875 C-12.56601562 2.87242187 -13.50703125 2.86984375 -14.4765625 2.8671875 C-17.12677507 2.89452002 -17.12677507 2.89452002 -20 4 C-20 3.34 -20 2.68 -20 2 C-19.34 2 -18.68 2 -18 2 C-18 1.34 -18 0.68 -18 0 C-22.0042343 3.49087093 -23.62671065 5.64951939 -24 11 C-24.33 11 -24.66 11 -25 11 C-25.71558024 3.96346098 -25.71558024 3.96346098 -23.8046875 1.390625 C-16.27469458 -5.04203227 -8.53208135 -3.59245531 0 0 Z " fill="#B4B4B4" transform="translate(413,836)"/>
<path d="M0 0 C0.66 0.33 1.32 0.66 2 1 C3.73075298 6.19225894 3.62293724 11.5923746 3 17 C1.61211824 19.71753072 0.33028812 20.96099789 -2 23 C-3.32 22.67 -4.64 22.34 -6 22 C-5.47599609 21.12601563 -5.47599609 21.12601563 -4.94140625 20.234375 C-1.19118453 13.4776016 -0.14529043 7.68718475 0 0 Z " fill="#B6B6B6" transform="translate(297,843)"/>
<path d="M0 0 C0.33 0 0.66 0 1 0 C1 11.88 1 23.76 1 36 C-0.65 36 -2.3 36 -4 36 C-4.33 27.75 -4.66 19.5 -5 11 C-5.99 11.99 -6.98 12.98 -8 14 C-7.67 12.35 -7.34 10.7 -7 9 C-5.68 9 -4.36 9 -3 9 C-3 17.58 -3 26.16 -3 35 C-2.01 35 -1.02 35 0 35 C0 23.45 0 11.9 0 0 Z " fill="#919191" transform="translate(525,834)"/>
<path d="M0 0 C0.06058594 0.86882813 0.12117188 1.73765625 0.18359375 2.6328125 C0.26738281 3.78523437 0.35117187 4.93765625 0.4375 6.125 C0.51871094 7.26195312 0.59992188 8.39890625 0.68359375 9.5703125 C0.97730965 12.7540478 1.43124313 15.85510907 2 19 C1.01 19 0.02 19 -1 19 C-4.81636773 13.27544841 -4.29282789 7.70250505 -4 1 C-2 0 -2 0 0 0 Z " fill="#BBBBBA" transform="translate(312,844)"/>
<path d="M0 0 C6.27 0 12.54 0 19 0 C19 1.32 19 2.64 19 4 C12.07 4 5.14 4 -2 4 C-2 3.67 -2 3.34 -2 3 C1.465 2.505 1.465 2.505 5 2 C3.35 1.67 1.7 1.34 0 1 C0 0.67 0 0.34 0 0 Z " fill="#A9AAA9" transform="translate(545,834)"/>
<path d="M0 0 C0 0.66 0 1.32 0 2 C0.66 2.66 1.32 3.32 2 4 C0.824375 4.61875 0.824375 4.61875 -0.375 5.25 C-3.21551399 7.14367599 -3.79596463 7.90390905 -5 11 C-5.45275278 13.81496741 -5.45275278 13.81496741 -5.625 16.75 C-5.69976562 17.73484375 -5.77453125 18.7196875 -5.8515625 19.734375 C-5.90054687 20.48203125 -5.94953125 21.2296875 -6 22 C-6.33 22 -6.66 22 -7 22 C-7 17.71 -7 13.42 -7 9 C-7.99 9.33 -8.98 9.66 -10 10 C-8.71596412 5.50587442 -5.23012555 0 0 0 Z " fill="#ABABAB" transform="translate(319,835)"/>
<path d="M0 0 C0.54140625 0.14308594 1.0828125 0.28617188 1.640625 0.43359375 C4.32992832 1.07920465 7.02745245 1.5763308 9.75 2.0625 C10.73484375 2.23910156 11.7196875 2.41570313 12.734375 2.59765625 C13.85585938 2.79681641 13.85585938 2.79681641 15 3 C13.02 3.99 13.02 3.99 11 5 C13.64 5.33 16.28 5.66 19 6 C19 6.33 19 6.66 19 7 C5.3667426 7.55353075 5.3667426 7.55353075 -1 4 C-0.67 2.68 -0.34 1.36 0 0 Z " fill="#A7A8A7" transform="translate(388,863)"/>
<path d="M0 0 C1.32 0.66 2.64 1.32 4 2 C0.45323009 5.94085545 -2.5347456 7.83365355 -7.89453125 8.1953125 C-9.33892578 8.16050781 -9.33892578 8.16050781 -10.8125 8.125 C-12.27623047 8.09792969 -12.27623047 8.09792969 -13.76953125 8.0703125 C-14.50558594 8.04710937 -15.24164063 8.02390625 -16 8 C-16 7.67 -16 7.34 -16 7 C-13.36 6.67 -10.72 6.34 -8 6 C-9.65 5.67 -11.3 5.34 -13 5 C-13 4.67 -13 4.34 -13 4 C-12.31292969 3.87882813 -11.62585938 3.75765625 -10.91796875 3.6328125 C-9.56638672 3.38144531 -9.56638672 3.38144531 -8.1875 3.125 C-7.29417969 2.96257813 -6.40085937 2.80015625 -5.48046875 2.6328125 C-2.77272154 2.08811551 -2.77272154 2.08811551 0 0 Z " fill="#ADAEAD" transform="translate(336,862)"/>
<path d="M0 0 C0.66 0 1.32 0 2 0 C2.25 3.3125 2.25 3.3125 2 7 C-0.36609872 9.55167509 -1.7462262 9.97701324 -5.234375 10.29296875 C-6.39453125 10.25816406 -7.5546875 10.22335937 -8.75 10.1875 C-9.92046875 10.16042969 -11.0909375 10.13335938 -12.296875 10.10546875 C-13.18890625 10.07066406 -14.0809375 10.03585937 -15 10 C-11.99559979 7.99706653 -10.29006055 7.50728374 -6.8125 6.875 C-5.91144531 6.70742188 -5.01039063 6.53984375 -4.08203125 6.3671875 C-3.39496094 6.24601563 -2.70789063 6.12484375 -2 6 C-1.34 4.02 -0.68 2.04 0 0 Z " fill="#C4C4C4" transform="translate(411,859)"/>
<path d="M0 0 C0 0.99 0 1.98 0 3 C3.3 3 6.6 3 10 3 C10.33 3.66 10.66 4.32 11 5 C10.09636719 4.98839844 9.19273437 4.97679687 8.26171875 4.96484375 C6.49248047 4.95130859 6.49248047 4.95130859 4.6875 4.9375 C3.51574219 4.92589844 2.34398437 4.91429687 1.13671875 4.90234375 C-2.03059195 4.85100102 -2.03059195 4.85100102 -5 6 C-5 5.34 -5 4.68 -5 4 C-4.34 4 -3.68 4 -3 4 C-3 3.34 -3 2.68 -3 2 C-7.0042343 5.49087093 -8.62671065 7.64951939 -9 13 C-9.33 13 -9.66 13 -10 13 C-10.71370262 5.9819242 -10.71370262 5.9819242 -8.8046875 3.35546875 C-5.67993984 0.63112845 -4.20194786 0 0 0 Z " fill="#A8A8A8" transform="translate(398,834)"/>
<path d="M0 0 C0 0.66 0 1.32 0 2 C0.66 2.66 1.32 3.32 2 4 C-3.37330889 7.39366878 -7.86946489 7.32712342 -14 7 C-14 6.67 -14 6.34 -14 6 C-11.36 6 -8.72 6 -6 6 C-6 5.34 -6 4.68 -6 4 C-8.64 4 -11.28 4 -14 4 C-14 3.67 -14 3.34 -14 3 C-13.30132812 2.86722656 -12.60265625 2.73445312 -11.8828125 2.59765625 C-10.51769531 2.33275391 -10.51769531 2.33275391 -9.125 2.0625 C-8.22007812 1.88847656 -7.31515625 1.71445312 -6.3828125 1.53515625 C-4.0328149 1.0073699 -2.39804152 0 0 0 Z " fill="#B0B0AF" transform="translate(292,863)"/>
<path d="M0 0 C0.33 0.66 0.66 1.32 1 2 C0.0625 4.625 0.0625 4.625 -1 7 C-0.34 7.33 0.32 7.66 1 8 C-0.32 10.31 -1.64 12.62 -3 15 C-3.99 15 -4.98 15 -6 15 C-6.99 15.495 -6.99 15.495 -8 16 C-6.42986223 10.03347646 -3.24970218 5.17090975 0 0 Z " fill="#A3A3A2" transform="translate(516,842)"/>
<path d="M0 0 C0.99 0 1.98 0 3 0 C3.08133791 1.91595968 3.13934367 3.83291932 3.1875 5.75 C3.22230469 6.81734375 3.25710938 7.8846875 3.29296875 8.984375 C3 12 3 12 0 16 C0 10.72 0 5.44 0 0 Z " fill="#C6C7C7" transform="translate(349,834)"/>
<path d="M0 0 C3.96 0 7.92 0 12 0 C12.33 0.99 12.66 1.98 13 3 C8.38 3.33 3.76 3.66 -1 4 C-0.67 2.68 -0.34 1.36 0 0 Z " fill="#C3C4C4" transform="translate(319,834)"/>
<path d="M0 0 C4.96148579 4.80143786 4.96148579 4.80143786 5.09765625 9.0390625 C5.08605469 10.22242188 5.07445312 11.40578125 5.0625 12.625 C5.05347656 13.81351563 5.04445313 15.00203125 5.03515625 16.2265625 C5.02355469 17.14179687 5.01195312 18.05703125 5 19 C4.67 19 4.34 19 4 19 C3.96261719 18.27554688 3.92523438 17.55109375 3.88671875 16.8046875 C3.50246722 11.15392978 2.93153851 6.97086964 0 2 C0 1.34 0 0.68 0 0 Z M-2 3 C-1.01 3.33 -0.02 3.66 1 4 C1 7.96 1 11.92 1 16 C0.67 16 0.34 16 0 16 C-0.06058594 15.31292969 -0.12117188 14.62585938 -0.18359375 13.91796875 C-0.26738281 13.01691406 -0.35117187 12.11585938 -0.4375 11.1875 C-0.51871094 10.29417969 -0.59992188 9.40085937 -0.68359375 8.48046875 C-0.93489767 5.87256441 -0.93489767 5.87256441 -2 3 Z " fill="#9F9F9E" transform="translate(296,839)"/>
<path d="M0 0 C0.33 0 0.66 0 1 0 C1.33 1.98 1.66 3.96 2 6 C2.99 4.68 3.98 3.36 5 2 C5.33 4.97 5.66 7.94 6 11 C5.01 10.67 4.02 10.34 3 10 C2.67 11.32 2.34 12.64 2 14 C0.09391902 10.78817851 -0.22266247 8.46117397 -0.125 4.75 C-0.09792969 3.41195312 -0.09792969 3.41195312 -0.0703125 2.046875 C-0.04710937 1.37140625 -0.02390625 0.6959375 0 0 Z " fill="#A2A2A0" transform="translate(263,847)"/>
<path d="M0 0 C0.33 0.66 0.66 1.32 1 2 C0.67 2.66 0.34 3.32 0 4 C0.66 4.66 1.32 5.32 2 6 C-1.4766338 8.14336161 -4.21229195 8.21277626 -8.25 8.125 C-9.32765625 8.10695313 -10.4053125 8.08890625 -11.515625 8.0703125 C-12.33546875 8.04710937 -13.1553125 8.02390625 -14 8 C-14 7.67 -14 7.34 -14 7 C-9.545 6.505 -9.545 6.505 -5 6 C-4.67 5.01 -4.34 4.02 -4 3 C-1.9375 1.3125 -1.9375 1.3125 0 0 Z " fill="#A5A5A5" transform="translate(371,862)"/>
<path d="M0 0 C0.99 0.495 0.99 0.495 2 1 C2.96070434 3.88211302 3.10581883 5.69850044 3.0625 8.6875 C3.05347656 9.49574219 3.04445313 10.30398438 3.03515625 11.13671875 C3.02355469 11.75160156 3.01195312 12.36648438 3 13 C2.01 13 1.02 13 0 13 C0 8.71 0 4.42 0 0 Z " fill="#C9C9C9" transform="translate(297,843)"/>
<path d="M0 0 C-0.99 0.33 -1.98 0.66 -3 1 C-3.33 1.99 -3.66 2.98 -4 4 C-3.34 4.33 -2.68 4.66 -2 5 C-2.99 5.33 -3.98 5.66 -5 6 C-5.99 5.01 -6.98 4.02 -8 3 C-8.5775 3.350625 -9.155 3.70125 -9.75 4.0625 C-12.39786506 5.16577711 -13.33185326 4.80156509 -16 4 C-14.08959948 3.1319092 -12.17139263 2.28098217 -10.25 1.4375 C-9.18265625 0.96183594 -8.1153125 0.48617187 -7.015625 -0.00390625 C-4.01630163 -0.9946154 -2.86578759 -1.16161779 0 0 Z " fill="#464E39" transform="translate(564,222)"/>
<path d="M0 0 C-2.71939459 1.4576935 -5.24754273 2.42442664 -8.25 3.125 C-9.4875 3.41375 -10.725 3.7025 -12 4 C-12 3.34 -12 2.68 -12 2 C-16.455 2.495 -16.455 2.495 -21 3 C-14.96489107 -1.02340595 -7.03317312 -0.12971016 0 0 Z " fill="#454E37" transform="translate(586,218)"/>
<path d="M0 0 C0 0.66 0 1.32 0 2 C-0.66 2 -1.32 2 -2 2 C-2.03738281 2.62648438 -2.07476562 3.25296875 -2.11328125 3.8984375 C-2.17902344 4.71570313 -2.24476563 5.53296875 -2.3125 6.375 C-2.37050781 7.18710937 -2.42851562 7.99921875 -2.48828125 8.8359375 C-3 11 -3 11 -6 13 C-6.48929664 5.78287462 -6.48929664 5.78287462 -4.125 2 C-2 0 -2 0 0 0 Z " fill="#C5C4C4" transform="translate(395,836)"/>
<path d="M0 0 C0.66 0.33 1.32 0.66 2 1 C1.51789063 1.36609375 1.03578125 1.7321875 0.5390625 2.109375 C-5.48222614 7.27047955 -6.37847329 12.27531084 -7 20 C-7.33 20 -7.66 20 -8 20 C-8.62460568 10.24921136 -8.62460568 10.24921136 -6.25 5.5 C-4.2795863 3.31065145 -2.47128449 1.58868289 0 0 Z " fill="#737474" transform="translate(364,754)"/>
<path d="M0 0 C1.32 0.33 2.64 0.66 4 1 C4 1.99 4 2.98 4 4 C-2.27 3.67 -8.54 3.34 -15 3 C-15 2.67 -15 2.34 -15 2 C-10.05 2 -5.1 2 0 2 C0 1.34 0 0.68 0 0 Z " fill="#AAABAA" transform="translate(594,835)"/>
<path d="M0 0 C0.66 0 1.32 0 2 0 C5 4.38461538 5 4.38461538 5 7 C3.68 7.33 2.36 7.66 1 8 C0.01 6.02 -0.98 4.04 -2 2 C-1.34 1.34 -0.68 0.68 0 0 Z " fill="#ACACAC" transform="translate(500,850)"/>
<path d="M0 0 C2.3125 -0.25 2.3125 -0.25 5 0 C6.8125 2 6.8125 2 8 4 C7.67 4.66 7.34 5.32 7 6 C4.03824877 5.38722388 2.61941217 4.74627478 0 3 C0 2.01 0 1.02 0 0 Z " fill="#BDBEBE" transform="translate(289,837)"/>
<path d="M0 0 C4.29 0.33 8.58 0.66 13 1 C13 1.66 13 2.32 13 3 C9.04 3 5.08 3 1 3 C0.67 2.01 0.34 1.02 0 0 Z " fill="#C5C4C4" transform="translate(273,866)"/>
<path d="M0 0 C0.33 0.99 0.66 1.98 1 3 C1.99 3 2.98 3 4 3 C3.67 3.99 3.34 4.98 3 6 C2.77820215 7.89212737 2.59385985 9.78884472 2.4375 11.6875 C2.35371094 12.68136719 2.26992188 13.67523437 2.18359375 14.69921875 C2.12300781 15.45847656 2.06242187 16.21773437 2 17 C1.67 17 1.34 17 1 17 C1 12.71 1 8.42 1 4 C0.01 4.33 -0.98 4.66 -2 5 C-1.34 3.35 -0.68 1.7 0 0 Z " fill="#8B8B8B" transform="translate(311,840)"/>
<path d="M0 0 C1.98567708 0.09765625 3.97135417 0.1953125 5.95703125 0.29296875 C5.95703125 1.28296875 5.95703125 2.27296875 5.95703125 3.29296875 C2.32703125 3.29296875 -1.30296875 3.29296875 -5.04296875 3.29296875 C-2.04296875 0.29296875 -2.04296875 0.29296875 0 0 Z " fill="#CACBCB" transform="translate(251.04296875,833.70703125)"/>
<path d="M0 0 C1.62580966 0.11398665 3.25067157 0.24155659 4.875 0.375 C5.77992188 0.44460938 6.68484375 0.51421875 7.6171875 0.5859375 C10 1 10 1 12 3 C8.04 3 4.08 3 0 3 C0 2.01 0 1.02 0 0 Z " fill="#C1C1C1" transform="translate(318,866)"/>
<path d="M0 0 C0.99 0 1.98 0 3 0 C3.66 2.64 4.32 5.28 5 8 C4.01 8 3.02 8 2 8 C0.23537317 4.91190305 0 3.76687864 0 0 Z " fill="#C8C8C8" transform="translate(309,855)"/>
<path d="M0 0 C0.66 0.33 1.32 0.66 2 1 C0.71451591 2.33929505 -0.57858155 3.67128643 -1.875 5 C-2.59429688 5.7425 -3.31359375 6.485 -4.0546875 7.25 C-6 9 -6 9 -8 9 C-6.4169423 4.7257442 -3.49431596 2.73468206 0 0 Z " fill="#D3D3D3" transform="translate(521,743)"/>
<path d="M0 0 C0.99 0 1.98 0 3 0 C5 4.75 5 4.75 5 7 C3.0625 6.3125 3.0625 6.3125 1 5 C0.25 2.375 0.25 2.375 0 0 Z " fill="#C2C2C1" transform="translate(502,857)"/>
<path d="M0 0 C0.66 0.33 1.32 0.66 2 1 C0.88121617 2.17262904 -0.24523051 3.33795138 -1.375 4.5 C-2.00148437 5.1496875 -2.62796875 5.799375 -3.2734375 6.46875 C-5 8 -5 8 -7 8 C-5.50902342 4.2047869 -3.24299151 2.38957269 0 0 Z " fill="#D6D7D6" transform="translate(214,767)"/>
<path d="M0 0 C0.33 0.99 0.66 1.98 1 3 C-0.43359375 5.04296875 -0.43359375 5.04296875 -2.4375 7.1875 C-3.09621094 7.90292969 -3.75492188 8.61835938 -4.43359375 9.35546875 C-4.95050781 9.89816406 -5.46742188 10.44085938 -6 11 C-6 7.39426104 -5.18292538 6.58663434 -3 3.8125 C-2.443125 3.09707031 -1.88625 2.38164062 -1.3125 1.64453125 C-0.879375 1.10183594 -0.44625 0.55914062 0 0 Z " fill="#5A4039" transform="translate(241,224)"/>
<path d="M0 0 C0 0.66 0 1.32 0 2 C0.66 2.66 1.32 3.32 2 4 C0.35 4.66 -1.3 5.32 -3 6 C-2.67 5.01 -2.34 4.02 -2 3 C-3.32 2.67 -4.64 2.34 -6 2 C-2.25 0 -2.25 0 0 0 Z " fill="#A3A3A3" transform="translate(292,863)"/>
<path d="M0 0 C3.3 0.99 6.6 1.98 10 3 C5.44968209 4.13757948 3.36915594 3.4283779 -1 2 C-0.67 1.34 -0.34 0.68 0 0 Z " fill="#C9CAC9" transform="translate(400,851)"/>
<path d="M0 0 C0.66 0.33 1.32 0.66 2 1 C1.0409375 2.051875 1.0409375 2.051875 0.0625 3.125 C-2.16386102 6.22841233 -2.65080943 8.24620139 -3 12 C-3.33 12 -3.66 12 -4 12 C-4.49230769 4.61538462 -4.49230769 4.61538462 -2 1.5 C-1.34 1.005 -0.68 0.51 0 0 Z " fill="#A1A1A1" transform="translate(392,835)"/>
<path d="M0 0 C-0.33 1.32 -0.66 2.64 -1 4 C-2.32 4.33 -3.64 4.66 -5 5 C-5 4.01 -5 3.02 -5 2 C-2 0 -2 0 0 0 Z " fill="#C2C2C1" transform="translate(317,838)"/>
<path d="M0 0 C0.66 0.33 1.32 0.66 2 1 C-1.465 3.97 -1.465 3.97 -5 7 C-5 6.01 -5 5.02 -5 4 C-2.5 1.8125 -2.5 1.8125 0 0 Z " fill="#5C5C5D" transform="translate(614,756)"/>
</svg>
