<?xml version="1.0" encoding="UTF-8"?>
<svg version="1.1" xmlns="http://www.w3.org/2000/svg" width="808" height="711">
<path d="M0 0 C266.64 0 533.28 0 808 0 C808 234.63 808 469.26 808 711 C541.36 711 274.72 711 0 711 C0 476.37 0 241.74 0 0 Z " fill="#302F2F" transform="translate(0,0)"/>
<path d="M0 0 C0.96510498 -0.01861084 1.93020996 -0.03722168 2.92456055 -0.05639648 C10.65659624 0.01377707 16.95598234 2.13320101 23.1875 6.75 C28.22486691 11.90451498 30.10414333 16.3153115 30.3125 23.5625 C30.06767239 29.46803883 29.30372901 33.93187374 25.10546875 38.37109375 C19.51019027 43.5170382 14.3775493 46.79043089 6.60546875 47.0546875 C4.7948999 47.13686523 4.7948999 47.13686523 2.94775391 47.22070312 C1.66562012 47.27162109 0.38348633 47.32253906 -0.9375 47.375 C-14.98785984 48.06863244 -28.42523867 50.24373116 -42.125 53.5 C-43.18134644 53.7477417 -43.18134644 53.7477417 -44.2590332 54.00048828 C-81.71221997 63.04491109 -116.19969931 83.05837376 -143.58105469 109.98681641 C-144.92521286 111.30419344 -146.29272339 112.59765999 -147.6640625 113.88671875 C-161.88740127 127.48181817 -175.20491892 145.47139439 -183.125 163.5 C-183.785 163.5 -184.445 163.5 -185.125 163.5 C-185.55063232 164.81532715 -185.55063232 164.81532715 -185.98486328 166.15722656 C-187.00910811 169.16021589 -188.13729946 172.06099788 -189.3671875 174.984375 C-189.79386719 176.00273437 -190.22054687 177.02109375 -190.66015625 178.0703125 C-191.10230469 179.11960937 -191.54445313 180.16890625 -192 181.25 C-193.71470898 185.33070208 -195.42184746 189.41446349 -197.125 193.5 C-197.5068042 194.39960449 -197.8886084 195.29920898 -198.28198242 196.22607422 C-200.35215989 201.20493402 -201.79726931 205.80601162 -202.6875 211.125 C-202.92661697 212.51310125 -203.16621417 213.90111985 -203.40625 215.2890625 C-203.52355469 215.98676758 -203.64085937 216.68447266 -203.76171875 217.40332031 C-204.23152422 220.11480508 -204.76552109 222.8117513 -205.29931641 225.51123047 C-208.58014743 242.31981507 -209.50928237 258.38813232 -209.125 275.5 C-209.10566406 276.39332031 -209.08632812 277.28664063 -209.06640625 278.20703125 C-208.9172982 283.98716093 -208.58189048 289.73651692 -208.125 295.5 C-208.07601562 296.23412109 -208.02703125 296.96824219 -207.9765625 297.72460938 C-205.57252472 329.92154391 -190.083817 364.17225064 -172.125 390.5 C-171.45984375 391.47839844 -170.7946875 392.45679688 -170.109375 393.46484375 C-164.89821324 400.84732291 -159.07787541 407.71188409 -153.125 414.5 C-152.43784912 415.28407227 -152.43784912 415.28407227 -151.73681641 416.08398438 C-134.46100542 435.6628274 -114.1434139 450.32325905 -91.125 462.5 C-90.41730469 462.87850098 -89.70960938 463.25700195 -88.98046875 463.64697266 C-68.20499295 474.59443818 -45.20347252 480.77356774 -22.125 484.5 C-21.05717285 484.67813232 -19.9893457 484.85626465 -18.88916016 485.03979492 C-14.47194828 485.5798419 -10.14101162 485.69850421 -5.6953125 485.73828125 C-4.79599503 485.7480751 -3.89667755 485.75786896 -2.97010803 485.76795959 C16.33909868 485.93487942 34.97638909 485.91550049 53.875 481.5 C54.84050781 481.28569336 55.80601562 481.07138672 56.80078125 480.85058594 C76.61817496 476.38972438 94.99303991 469.06620678 112.875 459.5 C114.03128906 458.88640625 115.18757813 458.2728125 116.37890625 457.640625 C131.89732807 449.09578295 145.89470441 438.52126427 158.875 426.5 C159.46909668 425.95118164 160.06319336 425.40236328 160.67529297 424.83691406 C176.71068858 409.84721 189.65887031 391.90551268 199.875 372.5 C200.535 372.5 201.195 372.5 201.875 372.5 C202.03355469 371.44425781 202.03355469 371.44425781 202.1953125 370.3671875 C202.96326875 367.1276479 204.21029084 364.57419416 205.75 361.625 C226.36111578 321.38659259 235.98102166 265.24998296 222.09741211 221.02294922 C221.59020663 219.52568966 221.07078008 218.03245601 220.53369141 216.5456543 C219.83410697 214.37300122 219.42579242 212.25149067 219.0625 210 C218.13697541 204.96546536 216.51687181 200.25078614 214.8125 195.4375 C214.54268311 194.674375 214.27286621 193.91125 213.99487305 193.125 C212.90944447 189.53919584 212.90944447 189.53919584 210.875 186.5 C210.74756575 184.06985841 210.68978879 181.68069765 210.6875 179.25 C210.67525391 178.58097656 210.66300781 177.91195312 210.65039062 177.22265625 C210.63552204 172.17725098 211.25035802 168.6004606 214.35546875 164.5859375 C219.71931742 159.20981458 224.44994145 156.42442304 232.1875 156 C239.61406315 156.21452246 245.12901263 159.27984 250.8125 163.875 C253.23455302 166.95761294 254.5059077 169.82834337 255.875 173.5 C256.32875 174.675625 256.7825 175.85125 257.25 177.0625 C257.62318359 178.08923828 257.62318359 178.08923828 258.00390625 179.13671875 C258.63061926 180.83699396 259.28808458 182.5260488 259.96484375 184.20703125 C262.97199323 191.99871889 265.08393577 199.87905213 267 208 C267.24145752 209.00015137 267.48291504 210.00030273 267.73168945 211.03076172 C271.70101671 228.41541023 273.38334611 245.7911141 273.26611328 263.60449219 C273.25000096 266.49982763 273.26610183 269.39376806 273.28515625 272.2890625 C273.29917173 285.57363952 271.98962964 298.39472759 269.875 311.5 C269.75955841 312.23942841 269.64411682 312.97885681 269.525177 313.74069214 C267.65633655 325.70872468 264.2429226 337.14600583 260.71533203 348.71484375 C259.98137314 351.14744195 259.27737005 353.58523231 258.58984375 356.03125 C256.00815218 365.04927973 252.39863022 373.11864861 248.00488281 381.36230469 C246.81860788 383.60669174 245.66886461 385.86732869 244.5234375 388.1328125 C230.11309356 416.4163613 210.41390009 444.06531735 185.875 464.5 C184.40546875 465.80130859 184.40546875 465.80130859 182.90625 467.12890625 C159.08584889 488.18691206 131.58238316 504.26026463 101.875 515.5 C100.66328125 515.97050781 99.4515625 516.44101562 98.203125 516.92578125 C83.24474213 522.50290602 67.76695859 526.63693544 52.0625 529.4375 C50.39429199 529.73599854 50.39429199 529.73599854 48.69238281 530.04052734 C16.74300021 535.40036263 -17.6266569 533.79271983 -49.125 526.5 C-49.83736816 526.33741699 -50.54973633 526.17483398 -51.28369141 526.00732422 C-108.59771035 512.77894182 -163.4341197 479.82049298 -199.125 432.5 C-199.72973145 431.71786133 -199.72973145 431.71786133 -200.34667969 430.91992188 C-206.42486266 423.04974648 -211.92164939 414.87193499 -217.1875 406.4375 C-217.74791992 405.54498535 -218.30833984 404.6524707 -218.88574219 403.73291016 C-221.53869989 399.41879278 -223.81792637 395.44414807 -225.125 390.5 C-225.785 390.5 -226.445 390.5 -227.125 390.5 C-227.3209375 389.99855469 -227.516875 389.49710937 -227.71875 388.98046875 C-230.76757476 381.26641644 -233.99646092 373.62931148 -237.22265625 365.98828125 C-237.54766113 365.21371582 -237.87266602 364.43915039 -238.20751953 363.64111328 C-238.97412816 361.85208782 -239.79161119 360.08497415 -240.62109375 358.32421875 C-242.86847795 353.07880737 -244.15852379 347.48463258 -245.60449219 341.97851562 C-246.1169521 340.03059109 -246.64042241 338.0855739 -247.1640625 336.140625 C-249.23158939 328.34399688 -250.99157926 320.56030925 -252.49951172 312.63916016 C-252.99156394 310.16968026 -253.5623821 307.79327995 -254.25 305.375 C-256.81991996 293.99392591 -256.34090389 281.91299157 -256.36523438 270.30126953 C-256.37488647 267.53256551 -256.40598908 264.76462312 -256.4375 261.99609375 C-256.52983954 246.23584993 -255.06721992 230.73612183 -250.88671875 215.49609375 C-249.2960985 209.23965412 -248.26158445 202.85197552 -247.125 196.5 C-246.465 196.5 -245.805 196.5 -245.125 196.5 C-244.98835937 195.4790625 -244.85171875 194.458125 -244.7109375 193.40625 C-241.78445945 173.89639634 -232.20511929 156.746996 -222.78125 139.65625 C-221.06800471 136.52072025 -221.06800471 136.52072025 -219.78515625 133.1640625 C-217.8346324 128.5059798 -214.94197643 124.49991462 -212.0625 120.375 C-211.48032715 119.53606201 -210.8981543 118.69712402 -210.29833984 117.83276367 C-208.58568909 115.37990742 -206.85980698 112.9372251 -205.125 110.5 C-204.6820459 109.87722168 -204.2390918 109.25444336 -203.78271484 108.61279297 C-196.72693775 98.80882634 -188.5211794 90.15164124 -180.125 81.5 C-179.51011719 80.86320312 -178.89523438 80.22640625 -178.26171875 79.5703125 C-170.93470075 72.00795131 -163.46328203 64.95773332 -155.125 58.5 C-154.14402344 57.71367187 -153.16304688 56.92734375 -152.15234375 56.1171875 C-132.63055775 40.58194278 -110.39005262 27.54042049 -87.125 18.5 C-86.0414624 18.07775146 -86.0414624 18.07775146 -84.93603516 17.64697266 C-57.912425 7.29934268 -29.015746 0.35855317 0 0 Z " fill="#FB674C" transform="translate(406.125,90.5)"/>
<path d="M0 0 C70.62 0 141.24 0 214 0 C214 16.83 214 33.66 214 51 C189.58 51 165.16 51 140 51 C140 110.07 140 169.14 140 230 C118.22 230 96.44 230 74 230 C74 170.93 74 111.86 74 51 C49.58 51 25.16 51 0 51 C0 34.17 0 17.34 0 0 Z " fill="#FCFCFC" transform="translate(308,247)"/>
<path d="M0 0 C1.20978516 0.00128906 2.41957031 0.00257813 3.66601562 0.00390625 C10.01939041 0.06643263 15.61152131 0.51037644 21.6875 2.375 C22.76 2.643125 23.8325 2.91125 24.9375 3.1875 C31.41644101 5.23916465 38.01564372 7.59376248 43.6875 11.375 C42.16400967 14.90820099 40.0572049 17.32708388 37.4375 20.125 C34.69020945 23.11727187 32.06880646 26.08398096 29.6875 29.375 C19.89258484 42.69500825 7.15606388 53.9626694 -9.61328125 57.09375 C-23.64756967 58.55607817 -37.82800111 57.58473184 -50.3125 50.375 C-52.05859375 48.75 -52.05859375 48.75 -53.3125 47.375 C-43.63800399 38.17243062 -31.68702286 32.11139075 -19.3125 27.375 C-18.03865244 26.81935983 -16.76729641 26.25792389 -15.5 25.6875 C-12.1277775 24.29893779 -8.83355082 23.30915634 -5.3125 22.375 C-21.43047577 22.65202771 -34.16073297 27.29038711 -48.10620117 35.07202148 C-49.25439331 35.71119507 -49.25439331 35.71119507 -50.42578125 36.36328125 C-51.44345581 36.94396362 -51.44345581 36.94396362 -52.48168945 37.53637695 C-54.3125 38.375 -54.3125 38.375 -57.3125 38.375 C-56.714375 37.364375 -56.11625 36.35375 -55.5 35.3125 C-54.08635826 32.87518666 -53.08589801 30.7428997 -52.125 28.0625 C-48.12054208 18.34676604 -36.85181425 8.60929309 -27.3125 4.375 C-18.09533768 0.83280239 -9.82616425 -0.20216256 0 0 Z " fill="#92C73D" transform="translate(587.3125,196.625)"/>
<path d="M0 0 C-3.28804301 1.79926809 -6.59253642 2.83559595 -10.1875 3.875 C-15.68223769 5.52466165 -20.84289039 7.49473745 -26 10 C-27.32 9.01 -28.64 8.02 -30 7 C-30.5775 7.350625 -31.155 7.70125 -31.75 8.0625 C-34.39786506 9.16577711 -35.33185326 8.80156509 -38 8 C-26.02715691 2.26301269 -13.34549168 -0.86617374 0 0 Z " fill="#363933" transform="translate(586,218)"/>
<path d="M0 0 C-0.99 0.33 -1.98 0.66 -3 1 C-3.33 1.99 -3.66 2.98 -4 4 C-3.34 4.33 -2.68 4.66 -2 5 C-2.99 5.33 -3.98 5.66 -5 6 C-5.99 5.01 -6.98 4.02 -8 3 C-8.5775 3.350625 -9.155 3.70125 -9.75 4.0625 C-12.39786506 5.16577711 -13.33185326 4.80156509 -16 4 C-14.08959948 3.1319092 -12.17139263 2.28098217 -10.25 1.4375 C-9.18265625 0.96183594 -8.1153125 0.48617187 -7.015625 -0.00390625 C-4.01630163 -0.9946154 -2.86578759 -1.16161779 0 0 Z " fill="#464E39" transform="translate(564,222)"/>
<path d="M0 0 C-2.71939459 1.4576935 -5.24754273 2.42442664 -8.25 3.125 C-9.4875 3.41375 -10.725 3.7025 -12 4 C-12 3.34 -12 2.68 -12 2 C-16.455 2.495 -16.455 2.495 -21 3 C-14.96489107 -1.02340595 -7.03317312 -0.12971016 0 0 Z " fill="#454E37" transform="translate(586,218)"/>
<path d="M0 0 C0.33 0.99 0.66 1.98 1 3 C-0.43359375 5.04296875 -0.43359375 5.04296875 -2.4375 7.1875 C-3.09621094 7.90292969 -3.75492188 8.61835938 -4.43359375 9.35546875 C-4.95050781 9.89816406 -5.46742188 10.44085938 -6 11 C-6 7.39426104 -5.18292538 6.58663434 -3 3.8125 C-2.443125 3.09707031 -1.88625 2.38164062 -1.3125 1.64453125 C-0.879375 1.10183594 -0.44625 0.55914062 0 0 Z " fill="#5A4039" transform="translate(241,224)"/>
</svg>
